<mxfile host="app.diagrams.net" modified="2024-04-14T08:37:42.271Z" agent="Mozilla/5.0 (Macintosh; Intel Mac OS X 10_15_7) AppleWebKit/537.36 (KHTML, like Gecko) Chrome/123.0.0.0 Safari/537.36" etag="qy3WdoFINy69_I5t_3ME" version="24.2.5" type="github">
  <diagram id="C5RBs43oDa-KdzZeNtuy" name="Page-1">
    <mxGraphModel dx="1283" dy="856" grid="1" gridSize="10" guides="1" tooltips="1" connect="1" arrows="1" fold="1" page="1" pageScale="1" pageWidth="827" pageHeight="1169" math="0" shadow="0">
      <root>
        <mxCell id="WIyWlLk6GJQsqaUBKTNV-0" />
        <mxCell id="WIyWlLk6GJQsqaUBKTNV-1" parent="WIyWlLk6GJQsqaUBKTNV-0" />
        <mxCell id="3IO9ggHxa3ZlMUn9ZBCW-14" value="" style="edgeStyle=orthogonalEdgeStyle;rounded=0;orthogonalLoop=1;jettySize=auto;html=1;" edge="1" parent="WIyWlLk6GJQsqaUBKTNV-1" source="3IO9ggHxa3ZlMUn9ZBCW-0" target="3IO9ggHxa3ZlMUn9ZBCW-13">
          <mxGeometry relative="1" as="geometry" />
        </mxCell>
        <mxCell id="3IO9ggHxa3ZlMUn9ZBCW-0" value="开始" style="rounded=0;whiteSpace=wrap;html=1;" vertex="1" parent="WIyWlLk6GJQsqaUBKTNV-1">
          <mxGeometry x="350" y="40" width="120" height="50" as="geometry" />
        </mxCell>
        <mxCell id="3IO9ggHxa3ZlMUn9ZBCW-4" value="" style="edgeStyle=orthogonalEdgeStyle;rounded=0;orthogonalLoop=1;jettySize=auto;html=1;" edge="1" parent="WIyWlLk6GJQsqaUBKTNV-1" source="3IO9ggHxa3ZlMUn9ZBCW-1" target="3IO9ggHxa3ZlMUn9ZBCW-3">
          <mxGeometry relative="1" as="geometry" />
        </mxCell>
        <mxCell id="3IO9ggHxa3ZlMUn9ZBCW-5" value="是" style="edgeLabel;html=1;align=center;verticalAlign=middle;resizable=0;points=[];" vertex="1" connectable="0" parent="3IO9ggHxa3ZlMUn9ZBCW-4">
          <mxGeometry x="-0.2" y="3" relative="1" as="geometry">
            <mxPoint y="-13" as="offset" />
          </mxGeometry>
        </mxCell>
        <mxCell id="3IO9ggHxa3ZlMUn9ZBCW-9" value="" style="edgeStyle=orthogonalEdgeStyle;rounded=0;orthogonalLoop=1;jettySize=auto;html=1;" edge="1" parent="WIyWlLk6GJQsqaUBKTNV-1" source="3IO9ggHxa3ZlMUn9ZBCW-1" target="3IO9ggHxa3ZlMUn9ZBCW-8">
          <mxGeometry relative="1" as="geometry" />
        </mxCell>
        <mxCell id="3IO9ggHxa3ZlMUn9ZBCW-10" value="否" style="edgeLabel;html=1;align=center;verticalAlign=middle;resizable=0;points=[];" vertex="1" connectable="0" parent="3IO9ggHxa3ZlMUn9ZBCW-9">
          <mxGeometry x="0.075" y="-1" relative="1" as="geometry">
            <mxPoint x="-3" y="-11" as="offset" />
          </mxGeometry>
        </mxCell>
        <mxCell id="3IO9ggHxa3ZlMUn9ZBCW-1" value="模块是否安装" style="rhombus;whiteSpace=wrap;html=1;" vertex="1" parent="WIyWlLk6GJQsqaUBKTNV-1">
          <mxGeometry x="350" y="280" width="120" height="80" as="geometry" />
        </mxCell>
        <mxCell id="3IO9ggHxa3ZlMUn9ZBCW-7" value="" style="edgeStyle=orthogonalEdgeStyle;rounded=0;orthogonalLoop=1;jettySize=auto;html=1;" edge="1" parent="WIyWlLk6GJQsqaUBKTNV-1" source="3IO9ggHxa3ZlMUn9ZBCW-3" target="3IO9ggHxa3ZlMUn9ZBCW-6">
          <mxGeometry relative="1" as="geometry" />
        </mxCell>
        <mxCell id="3IO9ggHxa3ZlMUn9ZBCW-3" value="模块卸载" style="whiteSpace=wrap;html=1;" vertex="1" parent="WIyWlLk6GJQsqaUBKTNV-1">
          <mxGeometry x="150" y="290" width="120" height="60" as="geometry" />
        </mxCell>
        <mxCell id="3IO9ggHxa3ZlMUn9ZBCW-19" style="edgeStyle=orthogonalEdgeStyle;rounded=0;orthogonalLoop=1;jettySize=auto;html=1;entryX=0;entryY=0.5;entryDx=0;entryDy=0;exitX=0.5;exitY=1;exitDx=0;exitDy=0;" edge="1" parent="WIyWlLk6GJQsqaUBKTNV-1" source="3IO9ggHxa3ZlMUn9ZBCW-6" target="3IO9ggHxa3ZlMUn9ZBCW-16">
          <mxGeometry relative="1" as="geometry" />
        </mxCell>
        <mxCell id="3IO9ggHxa3ZlMUn9ZBCW-6" value="调用模块卸载函数" style="whiteSpace=wrap;html=1;" vertex="1" parent="WIyWlLk6GJQsqaUBKTNV-1">
          <mxGeometry x="150" y="430" width="120" height="60" as="geometry" />
        </mxCell>
        <mxCell id="3IO9ggHxa3ZlMUn9ZBCW-12" value="" style="edgeStyle=orthogonalEdgeStyle;rounded=0;orthogonalLoop=1;jettySize=auto;html=1;" edge="1" parent="WIyWlLk6GJQsqaUBKTNV-1" source="3IO9ggHxa3ZlMUn9ZBCW-8" target="3IO9ggHxa3ZlMUn9ZBCW-11">
          <mxGeometry relative="1" as="geometry" />
        </mxCell>
        <mxCell id="3IO9ggHxa3ZlMUn9ZBCW-8" value="模块安装" style="whiteSpace=wrap;html=1;" vertex="1" parent="WIyWlLk6GJQsqaUBKTNV-1">
          <mxGeometry x="550" y="290" width="120" height="60" as="geometry" />
        </mxCell>
        <mxCell id="3IO9ggHxa3ZlMUn9ZBCW-20" style="edgeStyle=orthogonalEdgeStyle;rounded=0;orthogonalLoop=1;jettySize=auto;html=1;exitX=0.5;exitY=1;exitDx=0;exitDy=0;entryX=1;entryY=0.5;entryDx=0;entryDy=0;" edge="1" parent="WIyWlLk6GJQsqaUBKTNV-1" source="3IO9ggHxa3ZlMUn9ZBCW-11" target="3IO9ggHxa3ZlMUn9ZBCW-16">
          <mxGeometry relative="1" as="geometry" />
        </mxCell>
        <mxCell id="3IO9ggHxa3ZlMUn9ZBCW-11" value="调用模块安装函数" style="whiteSpace=wrap;html=1;" vertex="1" parent="WIyWlLk6GJQsqaUBKTNV-1">
          <mxGeometry x="550" y="430" width="120" height="60" as="geometry" />
        </mxCell>
        <mxCell id="3IO9ggHxa3ZlMUn9ZBCW-15" style="edgeStyle=orthogonalEdgeStyle;rounded=0;orthogonalLoop=1;jettySize=auto;html=1;entryX=0.5;entryY=0;entryDx=0;entryDy=0;" edge="1" parent="WIyWlLk6GJQsqaUBKTNV-1" source="3IO9ggHxa3ZlMUn9ZBCW-13" target="3IO9ggHxa3ZlMUn9ZBCW-1">
          <mxGeometry relative="1" as="geometry" />
        </mxCell>
        <mxCell id="3IO9ggHxa3ZlMUn9ZBCW-13" value="编译模块函数" style="whiteSpace=wrap;html=1;rounded=0;" vertex="1" parent="WIyWlLk6GJQsqaUBKTNV-1">
          <mxGeometry x="350" y="165" width="120" height="60" as="geometry" />
        </mxCell>
        <mxCell id="3IO9ggHxa3ZlMUn9ZBCW-16" value="结束" style="whiteSpace=wrap;html=1;" vertex="1" parent="WIyWlLk6GJQsqaUBKTNV-1">
          <mxGeometry x="354" y="560" width="120" height="60" as="geometry" />
        </mxCell>
      </root>
    </mxGraphModel>
  </diagram>
</mxfile>
